<svg width="178" height="137" viewBox="0 0 178 137" fill="none" xmlns="http://www.w3.org/2000/svg">
<path fill-rule="evenodd" clip-rule="evenodd" d="M0 121.88C0.591444 120.743 1.22014 119.622 1.88575 118.518C9.39412 106.071 21.1112 96.6732 34.9483 92.0003C29.6697 82.6743 26.9414 72.1393 27.036 61.4425C27.1306 50.7458 30.0445 40.2599 35.4872 31.0274C40.93 21.7949 48.7124 14.1372 58.0608 8.81578C67.4091 3.49434 77.9975 0.694458 88.7739 0.694458C99.5503 0.694458 110.139 3.49434 119.488 8.81578C128.836 14.1372 136.619 21.7949 142.061 31.0274C147.504 40.2599 150.417 50.7458 150.512 61.4425C150.606 72.1393 147.879 82.6743 142.6 92.0003C148.53 93.9976 154.114 96.891 159.156 100.578C163.77 103.875 167.869 107.831 171.317 112.318C173.728 115.335 175.829 118.555 177.602 121.929C174.113 127.266 170.156 132.269 165.789 136.879C165.46 135.81 165.09 134.752 164.679 133.706C161.941 126.736 157.482 120.56 151.713 115.745C145.944 110.931 139.048 107.632 131.66 106.152C120.161 117.189 104.792 123.358 88.7961 123.358C72.8006 123.358 57.4313 117.189 45.9318 106.152C34.9861 108.342 25.2508 114.493 18.6177 123.409C15.5718 127.503 13.2798 132.046 11.7993 136.83C7.43711 132.219 3.4846 127.216 0 121.88ZM120.621 30.4265C112.182 22.0338 100.734 17.3073 88.789 17.2844V17.2698C77.9024 17.4042 67.4326 21.4436 59.3118 28.6419C51.1911 35.8403 45.9677 45.7118 44.6061 56.4343C43.2446 67.1567 45.8367 78.0061 51.9039 86.9796C57.9712 95.9532 67.1039 102.445 77.6163 105.257C81.2569 106.241 85.0159 106.727 88.789 106.701C92.5955 106.727 96.3876 106.241 100.063 105.257C107.832 103.272 114.921 99.2519 120.59 93.6176C122.13 92.1394 123.515 90.5089 124.721 88.7512C130.616 81.0805 133.806 71.6983 133.799 62.0505C133.799 50.1928 129.059 38.8193 120.621 30.4265Z" fill="#F6F6F6"/>
</svg>
